<svg viewBox="0 0 291.319 291.319">
	<path  d="M204.897,145.641c17.561,0,31.79-14.275,31.79-31.872s-14.229-31.872-31.79-31.872
		c-17.57,0-31.799,14.275-31.799,31.872S187.327,145.641,204.897,145.641z M207.328,154.763l-0.646-0.055l-0.519-0.027l-1.375-0.036
		h-0.055l-1.393,0.036l-0.51,0.027l-0.646,0.055c-16.414,1.375-29.332,15.586-29.332,31.808v10.906c0,1.557,1.302,2.822,2.904,2.822
		h57.991c1.602,0,2.904-1.265,2.904-2.822v-10.906C236.66,170.349,223.742,156.138,207.328,154.763z M136.528,145.641
		c15.048,0,27.257-12.199,27.257-27.238s-12.208-27.229-27.257-27.229s-27.257,12.19-27.257,27.229S121.48,145.641,136.528,145.641z
		 M138.722,154.909l-0.61-0.055l0.073-0.036l-1.338-0.027h-0.055l-1.347,0.027l-0.492,0.036l-0.619,0.055
		c-15.895,1.347-24.99,15.54-24.99,31.699v10.879c0,1.557,1.311,2.813,2.904,2.813h48.869c1.593,0,2.895-1.256,2.895-2.813v-10.879
		C164.013,170.449,154.627,156.256,138.722,154.909z M72.748,154.745c15.067,0,27.284-12.226,27.284-27.302
		c0-15.085-12.208-27.32-27.284-27.32s-27.284,12.235-27.284,27.32C45.464,142.519,57.681,154.745,72.748,154.745z M75.106,163.94
		l-0.564-0.046l-0.437-0.027l-1.183-0.027h-0.046l-1.193,0.027l-0.446,0.027l-0.546,0.046
		c-14.083,1.092-25.163,12.445-25.163,25.399v8.712c0,1.238,1.111,2.249,2.476,2.249h49.77c1.375,0,2.485-1.011,2.485-2.249v-8.712
		C100.268,176.385,89.189,165.032,75.106,163.94z"/>
</svg>
